# xmcd
#
# Track frame offsets:
#	150
#	19487
#	34560
#	49439
#	64061
#	78354
#	93076
#	106821
#	121867
#	136588
#	151479
#	166948
#	181741
#	196727
#	212005
#	225824
#	240577
#	255190
#	269663
#	283896
#
# Disc length: 4047 seconds
#
# Revision: 0
# Processed by: cddbd v1.5.2PL0 Copyright (c) Steve Scherf et al.
# Submitted via: EasyCDDAExtractor 16.0.6.1
#
DISCID=fd0fcd14
DTITLE=Συλλογικός δίσκος - Τα ρεμπέτικα Β 1922-1937 08 Α
DYEAR=2010
DGENRE=Ρεμπέτικη
TTITLE0=Κυριακός Πέτρος-Δημητριάδης Τέτος - Ε ρε πω πω μεράκια [Ζαχ. Νοταράκης
TTITLE0=Τ. Δημητριάδης, Αθήνα 1930]
TTITLE1=Κασιμάτης Ζαχαρίας - Ωφ αμάν [ζεϊμπ., Σπ. Περιστέρης, Αθήνα 1934]
TTITLE2=Αμπατζή Ρίτα - Με ζουρνάδες και νταούλια [ζεϊμπ., Παν. Τούντας, Αθήνα 
TTITLE2=7.1934]
TTITLE3=Βαμβακάρης Μάρκος - Η ξανθιά [χασάπ., Μ. Βαμβακάρης, Αθήνα 7.1934]
TTITLE4=Χωματοπούλου Κατίνα - Αν ήμουνα άνδρας [χασάπ., Β. Παπάζογλου, Αθήνα 1
TTITLE4=933]
TTITLE5=Κυριακός Πέτρος - Ο τσακατσούκας [Γ. Καμβύσης, Αθήνα 1931]
TTITLE6=Εσκενάζυ Ρόζα - Το Μαρικάκι [αράπικο, Ι. Δραγάτσης (Μ.Φραντζεσ/λου), Α
TTITLE6=θήνα 1933]
TTITLE7=Μπάτης Γιώργος - Ο θερμαστής [ζεϊμπ., Γ. Μπάτης, Αθήνα 1934]
TTITLE8=Περπινιάδης Στελλάκης - Οι λαχανάδες [ζεϊμπ., απτάλικος, Β. Παπάζογλου
TTITLE8=, Αθήνα 1934]
TTITLE9=Αμπατζή Ρίτα - Ο βλάμης του Ψυρρή [ζεϊμπ., Κ. Σκαρβέλης, Αθήνα 1932 ή 
TTITLE9=33]
TTITLE10=Βαμβακάρης Μάρκος - Τα μάτια σου τ' αράπικα [ζεϊμπ., απτάλ., Μ. Βαμβα
TTITLE10=κάρης, Αθήνα 11.1933]
TTITLE11=Κυριακός Πέτρος - Κτηματολόγιον [Άγγελος Μαρτίνο, Αθήνα 1931]
TTITLE12=Αμπατζή Ρίτα - Το εισπρακτοράκι [χασάπικο, Δ. Σέμσης-Γ. Καμβύσης, Αθή
TTITLE12=να 17.7.1934]
TTITLE13=Κασιμάτης Ζαχαρίας - Πεισματάρικο [ζεϊμπ. απτάλικος, Ιάκ. Μοντανάρης,
TTITLE13=Αθήνα 1933]
TTITLE14=Εσκενάζυ Ρόζα - Εγώ είμαι η μπολσεβίκα [Παν. Τούντας, Αθήνα 1934]
TTITLE15=Μπάτης Γιώργος - Γκαμηλιέρικο [ζεϊμπ., καμηλ/κος, Γ. Μπάτης, Αθήνα 11
TTITLE15=1934]
TTITLE16=Εσκενάζυ Ρόζα - Γιαννούσενα [ζεϊμπ., Σωτ. Γαβαλάς (Μεμέτης), Αθήνα 19
TTITLE16=34 ή 35]
TTITLE17=Εσκενάζυ Ρόζα - Η νέα χήρα [Ιάκ. Μοντανάρης, Αθήνα 1931]
TTITLE18=Εσκενάζυ Ρόζα - Το νέο χανουμάκι [τσιφτετέλι, Στ. Παντελίδης, Αθήνα 2
TTITLE18=1.11.1934]
TTITLE19=Κυριακός Πέτρος - Λεξικό του μάγκα [Κίμων Καπετανάκης, Αθήνα 1930(;)]
EXTD=
EXTT0=
EXTT1=
EXTT2=
EXTT3=
EXTT4=
EXTT5=
EXTT6=
EXTT7=
EXTT8=
EXTT9=
EXTT10=
EXTT11=
EXTT12=
EXTT13=
EXTT14=
EXTT15=
EXTT16=
EXTT17=
EXTT18=
EXTT19=
PLAYORDER=
